<?xml version="1.0" encoding="utf-8"?>
<!-- Generator: Adobe Illustrator 16.0.0, SVG Export Plug-In . SVG Version: 6.00 Build 0)  -->
<!DOCTYPE svg PUBLIC "-//W3C//DTD SVG 1.1//EN" "http://www.w3.org/Graphics/SVG/1.1/DTD/svg11.dtd">
<svg version="1.1" id="Layer_1" xmlns="http://www.w3.org/2000/svg" xmlns:xlink="http://www.w3.org/1999/xlink" x="0px" y="0px"
	 width="631.824px" height="623.864px" viewBox="0 0 631.824 623.864" enable-background="new 0 0 631.824 623.864"
	 xml:space="preserve">
<linearGradient id="SVGID_1_" gradientUnits="userSpaceOnUse" x1="172.9404" y1="184.3032" x2="398.0327" y2="184.3032">
	<stop  offset="0" style="stop-color:#1B1464"/>
	<stop  offset="1" style="stop-color:#29ABE2"/>
</linearGradient>
<path fill-rule="evenodd" clip-rule="evenodd" fill="url(#SVGID_1_)" d="M217.731,214.673c-0.344,8.01,2.652,18.81,6.125,29.503
	c0.474,1.463,1.578,2.766,2.552,4.015c6.478,8.297,7.12,17.553,1.708,25.483c-4.983,7.303-14.662,10.34-24.187,7.554
	c-8.75-2.559-15.061-8.133-19.153-16.135c-11.344-22.187-13.529-45.866-10.746-70.188c5.786-50.562,42.379-92.868,91.653-104.791
	c43.308-10.479,81.155,1.314,113.793,30.888c5.353,4.85,10.416,10.247,14.583,16.122c6.425,9.058,4.798,19.428-3.012,25.354
	c-6.548,4.97-14.107,5.141-20.512-0.022c-3.261-2.629-6.091-5.83-8.923-8.949c-34.356-37.853-99.313-39.911-131.29,10.625
	C221.285,178.417,218.116,194.523,217.731,214.673z"/>
<path fill-rule="evenodd" clip-rule="evenodd" d="M433.376,112.244c-6.156,0.915-11.585,1.665-16.985,2.58
	c-0.881,0.15-1.984,0.847-2.396,1.609c-2.895,5.37-8.274,6.104-13.354,7.025c-4.528,0.82-7.365-1.657-8.284-6.362
	c-0.91-4.665,0.852-8.074,5.465-8.842c4.687-0.78,9.5-3.334,14.338-0.091c0.602,0.404,1.934-0.218,2.908-0.444
	c8.902-2.062,17.783-3.282,26.633,0.301c0.762,0.309,1.75,0.39,2.554,0.216c10.358-2.244,19.885,0.698,29.341,4.446
	c1.382,0.549,3.217,0.498,4.699,0.138c2.997-0.729,11.398,2.159,13.885,5.114c2.411,2.865,2.244,6.208,0.436,8.955
	c-1.161,1.764-3.806,3.747-5.661,3.632c-5.228-0.325-9.591-2.956-12.9-7.258c-1.329-1.728-2.989-3.507-4.901-4.413
	c-3.129-1.482-6.567-2.34-9.915-3.318c-1.637-0.478-3.367-0.633-5.313-0.981c0.116,0.805,0.026,1.341,0.246,1.541
	c13.102,11.942,17.518,27.461,18.093,44.447c0.31,9.169-0.065,18.361,0.259,27.528c0.305,8.584,1.206,17.146,1.696,25.726
	c0.769,13.437-4.748,22.983-17.375,28.384c-1.369,0.586-2.43,3.433-2.501,5.274c-0.589,15.174-1.886,30.188-6.023,44.92
	c-10.653,37.925-35.309,62.188-72.292,74.267c-29.27,9.559-59.136,9.437-88.935,3.158c-12.185-2.568-24.067-6.797-35.845-10.957
	c-4.793-1.694-9.022-5.09-13.347-7.955c-2.253-1.493-2.572-11.288-0.404-12.838c0.87-0.623,2.781-0.449,3.912,0.053
	c18.47,8.189,37.552,14.363,57.586,17.215c29.61,4.214,58.762,3.467,86.438-9.601c26.478-12.502,42.678-33.445,50.082-61.581
	c3.215-12.213,4.522-24.597,4.639-37.177c0.023-2.697-0.745-4.205-3.358-5.278c-10.753-4.412-16.96-12.729-18.674-24.011
	c-1.209-7.957-2.454-15.88-0.959-24.201c1.021-5.682-0.824-11.842-1.102-17.802c-0.45-9.727-1.424-19.513-0.793-29.184
	c0.818-12.551,6.543-23.116,16.461-31.167c0.338-0.275,0.685-0.557,0.954-0.893C432.843,114.218,432.86,113.904,433.376,112.244z
	 M465.604,173.868c-0.121-0.003-0.241-0.006-0.362-0.009c0-4.945,0.074-9.892-0.014-14.836c-0.27-15.299-5.687-28.321-17.12-38.721
	c-4.739-4.311-5.104-4.571-10.308-0.607c-10.505,7.999-16.302,18.84-16.013,31.922c0.304,13.782,2.026,27.533,3.188,41.292
	c0.066,0.78,0.659,1.515,1.002,2.272c0.906,1.996,2.252,3.913,2.625,6.004c0.919,5.139,0.974,10.454,2.139,15.523
	c1.756,7.636,9.16,12.843,16.474,12.276c8.267-0.64,13.634-6.042,14.413-14.716c0.59-6.57,0.879-13.024,2.727-19.583
	C466.195,188.147,465.299,180.838,465.604,173.868z"/>
<path fill-rule="evenodd" clip-rule="evenodd" d="M421.297,543.566c1.799,1.813,3.236,3.914,4.433,6.163
	c1.414,0.481,2.841,0.927,4.274,1.304c0.807-0.054,2.998,0.039,4.582,0.066c0.459-0.188,0.93-0.382,1.4-0.575
	c0.985-2.396,2.146-4.72,3.45-6.951c0.054-5.436,0.112-10.87,0.157-16.307c0.056-6.598,0.01-13.196,0.01-19.796
	c2.187,0.455,2.964,1.058,3.727,1.682c10.363,8.479,22.103,10.855,34.86,7.225c27.534-7.837,41.233-39.83,28.612-66.404
	c-9.831-20.7-30.408-30.453-51.224-23.858c-4.885,1.547-9.323,4.509-14.175,6.924c-0.257-0.41-0.685-0.974-0.988-1.599
	c-1.954-4.018-5.211-6.037-9.559-5.225c-4.609,0.861-6.064,4.624-6.436,8.791c-0.245,2.747-0.141,5.527-0.223,8.292
	c-0.771,26.039-1.538,52.078-2.332,78.116c-0.224,7.295-0.467,14.591-0.708,21.886C421.204,543.389,421.253,543.474,421.297,543.566
	z M454.936,446.117c18.403-10.463,39.237,2.563,39.333,26.529c-0.023,5.12-1.991,11.571-6.31,17.179
	c-9.937,12.906-27.486,13.806-38.878,2.067C436.285,478.704,439.318,454.999,454.936,446.117z"/>
<linearGradient id="SVGID_2_" gradientUnits="userSpaceOnUse" x1="314.0396" y1="282.8354" x2="420.6968" y2="282.8354">
	<stop  offset="0" style="stop-color:#1B1464"/>
	<stop  offset="1" style="stop-color:#000000"/>
</linearGradient>
<path fill-rule="evenodd" clip-rule="evenodd" fill="url(#SVGID_2_)" d="M420.667,246.892c-0.425,10.397-4.194,19.894-8.453,29.132
	c-14.292,31.003-37.874,51.784-70.176,62.659c-3.838,1.292-7.868,2.141-11.876,2.769c-6.452,1.01-11.84-2.299-14.197-8.312
	c-5.371-13.701,0.823-28.442,14.456-33.884c10.049-4.012,19.866-8.307,27.922-15.832c11.976-11.186,19.521-24.831,23.068-40.771
	c0.378-1.695,0.882-3.386,1.538-4.991c4.024-9.83,11.883-14.808,21.005-13.384c8.216,1.282,15.924,10.294,16.701,19.559
	C420.742,244.849,420.667,245.873,420.667,246.892z"/>
<path fill-rule="evenodd" clip-rule="evenodd" d="M112.913,431.4c6.76-1.944,13.143-4.938,19.719-5.445
	c17.051-1.315,31.323,9.655,35.551,26.733c1.346,5.439,1.751,11.23,1.757,16.861c0.014,12.957-0.497,25.913-0.76,38.87
	c-0.1,4.913-1.698,8.84-6.66,10.7c-4.816,1.803-10.404-0.78-11.206-5.821c-0.723-4.546-0.575-9.262-0.505-13.897
	c0.169-11.062,0.518-22.12,0.794-33.181c0.004-0.146,0-0.29-0.004-0.437c-0.33-12.036-6.339-19.709-16.357-20.884
	c-9.665-1.133-19.382,6.102-22.054,16.716c-0.881,3.501-1.387,7.162-1.524,10.771c-0.479,12.511-0.704,25.029-1.058,37.545
	c-0.12,4.213-2.118,7.72-6.104,8.614c-2.779,0.625-6.832,0.251-8.802-1.441c-2.174-1.864-3.604-5.731-3.642-8.749
	c-0.147-11.637,0.341-23.285,0.683-34.926c0.781-26.629,1.604-53.255,2.444-79.881c0.135-4.274,1.171-8.168,5.687-9.93
	c6.524-2.545,12.458,1.833,12.45,9.551c-0.013,11.207-0.432,22.415-0.63,33.623C112.658,428.62,112.863,430.453,112.913,431.4z"/>
<path fill-rule="evenodd" clip-rule="evenodd" d="M606.764,507.887c-6.46,3.153-12.343,7.313-18.859,8.942
	c-14.264,3.569-28.003-3.214-37.198-16.906c-12.695-18.901-10.18-47.455,5.45-63.47c14.162-14.511,37.195-15.371,49.089-2.847
	c0.271,0.286,0.761,0.364,1.142,0.536c3.728-6.352,6.275-8.022,10.496-6.921c4.532,1.183,6.505,4.267,6.491,11.456
	c-0.042,22.694-0.235,45.388-0.454,68.08c-0.019,1.848-0.076,4.233-1.159,5.409c-1.809,1.966-4.46,4.338-6.758,4.34
	c-2.307,0.002-4.923-2.383-6.81-4.306C607.046,511.032,607.024,508.758,606.764,507.887z M558.892,470.611
	c-0.088,8.16,2.102,14.849,6.388,20.55c8.098,10.772,23.065,11.706,32.446,2.022c9.225-9.522,11.498-25.732,5.241-37.377
	c-8.556-15.924-27.875-17.237-38.291-2.613C560.748,458.71,558.743,464.819,558.892,470.611z"/>
<path fill-rule="evenodd" clip-rule="evenodd" d="M414.654,470.416c-0.552,24.666-17.039,46.654-39.407,51.679
	c-26.73,6.002-53.519-10.981-60.25-38.187c-4.298-17.369-0.664-33.176,9.482-47.643c1.315-1.877,3.007-3.599,4.833-4.985
	c3.861-2.931,7.903-2.225,11.635,1.706c3.827,4.033,4.066,7.02,1.054,11.172c-2.559,3.527-5.527,6.881-7.408,10.752
	c-6.492,13.363-4.579,26.164,4.295,37.714c8.188,10.657,19.354,14.674,32.531,11.905c14.256-2.994,24.3-16.543,25.255-33.36
	c0.797-14.03-8.36-27.489-21.76-31.984c-1.38-0.463-2.788-0.854-4.135-1.397c-5.087-2.046-6.957-6.237-5.285-11.723
	c1.429-4.685,5.608-7.211,10.619-5.804c16.539,4.644,28.109,15.047,34.008,31.166C412.342,457.497,413.183,464.07,414.654,470.416z"
	/>
<path fill-rule="evenodd" clip-rule="evenodd" d="M49.863,521.696c-9.542,0.049-18.451-2.474-26.89-6.689
	c-4.117-2.057-7.598-4.931-8.688-9.78c-1.049-4.664,0.457-9.045,3.865-11.236c4.079-2.624,8.167-2.313,11.728,0.734
	c5.557,4.755,11.928,7.128,19.123,7.488c2.163,0.107,4.366,0.135,6.505-0.144c5.633-0.732,8.135-3.193,8.606-8.128
	c0.484-5.078-1.667-8.475-6.942-10.19c-5.116-1.664-10.38-2.873-15.518-4.479c-8.796-2.748-16.743-6.597-21.144-15.524
	c-7.522-15.26,1.08-33.778,17.654-37.322c12.542-2.682,24.644-0.855,36.171,4.556c3.891,1.826,7.386,4.401,7.238,9.458
	c-0.233,7.933-6.407,11.497-14.007,8.869c-6.378-2.206-13.053-3.613-19.669-5.03c-1.869-0.4-4.435-0.218-5.899,0.812
	c-2.032,1.428-3.942,3.682-4.777,5.99c-1.036,2.864,0.568,5.626,3.411,6.774c4.423,1.787,9.024,3.14,13.569,4.621
	c3.732,1.216,7.643,2.007,11.213,3.578c13.59,5.985,19.853,17.028,17.722,30.69c-2.141,13.73-12.22,23.044-26.733,24.631
	C54.235,521.612,52.043,521.594,49.863,521.696z"/>
<path fill-rule="evenodd" clip-rule="evenodd" d="M210.698,478.319c0-10.19-0.046-20.381,0.035-30.568
	c0.019-2.305-0.39-3.719-2.993-4.409c-3.488-0.926-5.779-3.282-5.871-7.218c-0.103-4.448,1.239-8.358,5.658-9.861
	c3.336-1.135,3.878-3.059,4.064-6.127c0.297-4.909,0.444-10.025,1.962-14.623c3.266-9.89,10.488-16.295,20.795-17.79
	c7.561-1.096,15.364-0.877,23.042-0.663c4.693,0.131,7.03,3.072,7.41,7.599c0.391,4.651-2.056,8.44-6.459,9.604
	c-1.802,0.476-3.73,0.567-5.608,0.643c-3.055,0.121-6.115,0.096-9.174,0.111c-12.314,0.062-14.52,7.146-13.826,18.313
	c0.048,0.768,1.929,1.96,3.013,2.024c3.624,0.217,7.279-0.147,10.911,0c5.684,0.229,8.818,3.438,8.828,8.713
	c0.011,5.504-3.175,9.127-8.692,9.52c-3.479,0.248-6.991,0.254-10.478,0.103c-2.903-0.128-4.175,0.775-4.238,3.896
	c-0.354,17.899-0.865,35.798-1.334,53.695c-0.073,2.766-0.048,5.545-0.337,8.289c-0.645,6.127-4.483,9.619-9.979,9.294
	c-4.979-0.292-8.179-4.019-8.234-9.979c-0.093-10.188-0.026-20.377-0.026-30.566C209.678,478.319,210.188,478.319,210.698,478.319z"
	/>
<line stroke="#000000" stroke-width="2" stroke-miterlimit="10" x1="210.334" y1="478.318" x2="213.28" y2="441.984"/>
<path fill-rule="evenodd" clip-rule="evenodd" d="M269.7,468.321c0-6.694-0.241-13.398,0.094-20.076
	c0.187-3.746-1.139-4.733-4.646-4.824c-6.582-0.172-9.631-2.809-10.03-7.961c-0.436-5.624,3.282-10.034,9.494-10.059
	c4.681-0.019,5.466-2.025,5.477-6.039c0.021-7.852,0.299-15.715,0.855-23.545c0.391-5.51,3.92-8.805,8.48-8.738
	c4.658,0.068,8.052,3.301,8.242,8.933c0.273,8.134,0.133,16.294-0.2,24.429c-0.148,3.618,0.465,5.372,4.601,5.176
	c5.075-0.24,10.185,0.055,15.271,0.309c5.61,0.281,9.484,4.122,9.325,8.979c-0.162,4.917-4.135,8.652-9.598,8.79
	c-5.092,0.128-10.189,0.146-15.279,0.02c-2.682-0.067-3.879,0.639-3.943,3.633c-0.275,12.8-0.836,25.594-1.21,38.391
	c-0.292,9.951,2.599,12.837,13.188,13.414c6.466,0.354,10.208,4.116,9.666,9.725c-0.459,4.746-3.281,7.609-8.104,8.222
	c-18.529,2.353-31.694-9.033-32.438-28.271c-0.265-6.826-0.043-13.669-0.043-20.506C269.168,468.32,269.433,468.321,269.7,468.321z"
	/>
<line stroke="#000000" stroke-width="2" stroke-miterlimit="10" x1="270.067" y1="470.652" x2="271.278" y2="444.024"/>
<linearGradient id="SVGID_3_" gradientUnits="userSpaceOnUse" x1="211.21" y1="314.5903" x2="301.5625" y2="314.5903">
	<stop  offset="0" style="stop-color:#1B1464"/>
	<stop  offset="1" style="stop-color:#1B1464"/>
</linearGradient>
<path fill-rule="evenodd" clip-rule="evenodd" fill="url(#SVGID_3_)" d="M211.21,302.662c2.095-0.604,3.196-0.865,4.258-1.236
	c9.173-3.208,18.614-5.829,27.434-9.821c9.412-4.259,18.44-5.241,27.709-0.603c7.265,3.634,14.869,6.923,21.375,11.665
	c9.834,7.166,12.099,19.209,6.771,28.728c-4.186,7.478-10.634,11.156-18.891,9.422c-8.779-1.842-17.552-4.325-25.854-7.695
	c-14.815-6.014-28.245-14.443-39.318-26.224C213.634,305.771,212.72,304.508,211.21,302.662z"/>
<path fill-rule="evenodd" clip-rule="evenodd" d="M307.298,232.974c-8.146-0.028-14.886-6.609-14.915-15.603
	c-0.015-4.255-1.687-6.085-5.094-7.873c-8.759-4.595-17.345-9.525-25.958-14.395c-4.323-2.444-6.33-6.228-6.146-11.226
	c0.279-7.584,7.964-11.918,14.395-7.87c2.421,1.524,4.475,3.695,6.514,5.752c6.868,6.923,13.564,14.021,20.567,20.802
	c1.101,1.065,3.652,1.509,5.2,1.069c4.579-1.304,8.82-0.873,12.396,2.047c2.616,2.137,4.569,1.732,6.936-0.014
	c12.763-9.41,25.498-18.859,38.387-28.095c2.355-1.688,5.302-3.204,8.103-3.471c4.348-0.415,7.988,3.186,8.85,7.514
	c1.068,5.378-1.264,10.564-6.191,12.686c-5.877,2.53-11.938,4.624-17.878,7.009c-9.048,3.633-18.028,7.435-27.106,10.99
	c-2.933,1.149-4.197,2.622-4.172,6.046C321.252,227.163,315.435,233.003,307.298,232.974z M297.551,217.401
	c-0.204,5.371,3.994,9.892,9.324,10.04c4.753,0.132,8.854-3.646,8.945-8.24c0.109-5.566-3.892-10.307-8.907-10.554
	C301.674,208.39,297.754,212.054,297.551,217.401z"/>
<g>
	<path fill-rule="evenodd" clip-rule="evenodd" d="M197.018,472.948c0,11.78,0.212,23.566-0.15,35.336
		c-0.089,2.914-1.436,6.264-3.285,8.534c-2.382,2.926-6.276,2.953-9.723,1.609c-3.694-1.441-5.066-4.752-5.133-8.434
		c-0.101-5.519,0.101-11.043,0.222-16.564c0.406-18.321,0.813-36.643,1.263-54.963c0.198-8.061,4.631-12.6,10.928-11.325
		c4.823,0.977,7.26,4.731,7.24,10.899c-0.041,11.636-0.012,23.271-0.012,34.906C197.917,472.947,197.468,472.947,197.018,472.948z"
		/>
</g>
<line stroke="#000000" stroke-width="2" stroke-miterlimit="10" x1="195.526" y1="507.118" x2="197.426" y2="469.671"/>
<path fill-rule="evenodd" clip-rule="evenodd" d="M519.386,470.016c0-11.917-0.271-23.845,0.195-35.743
	c0.114-2.913,1.948-6.61,4.213-8.404c4.377-3.467,10.756-0.203,11.657,5.836c0.703,4.704,0.591,9.56,0.525,14.344
	c-0.253,18.316-0.621,36.631-0.979,54.944c-0.048,2.468-0.152,4.949-0.458,7.396c-0.524,4.227-4.225,7.592-8.199,7.66
	c-3.7,0.063-7.482-2.655-7.793-6.842c-0.537-7.219-0.297-14.497-0.34-21.751c-0.034-5.812-0.007-11.625-0.007-17.438
	C518.596,470.017,518.991,470.017,519.386,470.016z"/>
<line stroke="#000000" stroke-width="2" stroke-miterlimit="10" x1="519.367" y1="470.019" x2="521.339" y2="436.155"/>
<path fill-rule="evenodd" clip-rule="evenodd" d="M200.333,399.708c-0.096,6.76-4.766,11.616-11.085,11.527
	c-6.308-0.089-10.793-4.8-10.779-11.321c0.014-6.432,5.152-11.863,11.079-11.706C195.587,388.369,200.42,393.521,200.333,399.708z"
	/>
<path fill-rule="evenodd" clip-rule="evenodd" d="M517.802,399.134c0.049-6.298,4.435-10.954,10.158-10.786
	c5.381,0.157,10.031,5.12,10.046,10.719c0.016,5.766-4.564,10.834-9.804,10.852C522.596,409.938,517.758,404.92,517.802,399.134z"/>
<path fill-rule="evenodd" clip-rule="evenodd" fill="#FFFFFF" d="M465.604,173.868c-0.305,6.971,0.591,14.279-1.25,20.817
	c-1.848,6.559-2.137,13.013-2.727,19.583c-0.779,8.674-6.146,14.076-14.413,14.716c-7.313,0.566-14.718-4.641-16.474-12.276
	c-1.165-5.069-1.22-10.384-2.139-15.523c-0.373-2.091-1.719-4.009-2.625-6.004c-0.343-0.758-0.936-1.493-1.002-2.272
	c-1.161-13.759-2.884-27.51-3.188-41.292c-0.289-13.082,5.508-23.923,16.013-31.922c5.204-3.963,5.568-3.704,10.308,0.607
	c11.434,10.4,16.851,23.422,17.12,38.721c0.088,4.944,0.014,9.891,0.014,14.836C465.363,173.862,465.483,173.865,465.604,173.868z"
	/>
<path fill-rule="evenodd" clip-rule="evenodd" fill="#FFFFFF" d="M297.551,217.401c0.203-5.347,4.123-9.011,9.362-8.754
	c5.016,0.247,9.017,4.987,8.907,10.554c-0.091,4.594-4.192,8.373-8.945,8.24C301.545,227.293,297.347,222.771,297.551,217.401z"/>
<path fill-rule="evenodd" clip-rule="evenodd" fill="#666666" d="M341.928,427.061c0.049-6.299,4.434-10.955,10.158-10.787
	c5.38,0.157,10.031,5.12,10.046,10.72c0.015,5.766-4.565,10.833-9.805,10.851C346.722,437.865,341.883,432.846,341.928,427.061z"/>
</svg>
