<?xml version="1.0" encoding="utf-8"?>
<!-- Generator: Adobe Illustrator 16.0.0, SVG Export Plug-In . SVG Version: 6.00 Build 0)  -->
<!DOCTYPE svg PUBLIC "-//W3C//DTD SVG 1.1//EN" "http://www.w3.org/Graphics/SVG/1.1/DTD/svg11.dtd">
<svg version="1.1" id="Layer_1" xmlns="http://www.w3.org/2000/svg" xmlns:xlink="http://www.w3.org/1999/xlink" x="0px" y="0px"
	 width="631.824px" height="623.864px" viewBox="0 0 631.824 623.864" enable-background="new 0 0 631.824 623.864"
	 xml:space="preserve">
<g>
	<linearGradient id="SVGID_1_" gradientUnits="userSpaceOnUse" x1="215.748" y1="192.189" x2="375.7163" y2="192.189">
		<stop  offset="0" style="stop-color:#1B1464"/>
		<stop  offset="1" style="stop-color:#29ABE2"/>
	</linearGradient>
	<path fill-rule="evenodd" clip-rule="evenodd" fill="url(#SVGID_1_)" d="M247.58,213.772c-0.245,5.692,1.884,13.368,4.353,20.967
		c0.337,1.039,1.122,1.965,1.814,2.854c4.604,5.896,5.06,12.474,1.215,18.11c-3.542,5.191-10.42,7.349-17.19,5.369
		c-6.218-1.818-10.703-5.78-13.611-11.467c-8.062-15.767-9.615-32.596-7.637-49.881c4.112-35.934,30.118-65.999,65.135-74.472
		c30.777-7.447,57.675,0.935,80.87,21.952c3.805,3.446,7.403,7.281,10.365,11.457c4.565,6.438,3.41,13.807-2.141,18.019
		c-4.655,3.532-10.026,3.654-14.577-0.016c-2.318-1.868-4.329-4.143-6.343-6.359c-24.415-26.901-70.578-28.364-93.303,7.55
		C250.105,188.005,247.854,199.452,247.58,213.772z"/>
	<path fill-rule="evenodd" clip-rule="evenodd" d="M400.833,140.979c-4.375,0.65-8.233,1.183-12.071,1.833
		c-0.626,0.107-1.41,0.602-1.702,1.144c-2.057,3.816-5.881,4.337-9.49,4.992c-3.219,0.583-5.233-1.177-5.888-4.521
		c-0.646-3.315,0.605-5.739,3.884-6.284c3.33-0.554,6.752-2.369,10.189-0.064c0.427,0.287,1.374-0.156,2.068-0.315
		c6.325-1.465,12.638-2.333,18.927,0.213c0.54,0.22,1.242,0.277,1.814,0.154c7.361-1.595,14.132,0.495,20.852,3.16
		c0.981,0.39,2.286,0.354,3.34,0.098c2.13-0.518,8.101,1.534,9.867,3.635c1.715,2.036,1.595,4.412,0.31,6.364
		c-0.825,1.253-2.705,2.663-4.022,2.581c-3.717-0.23-6.816-2.101-9.169-5.158c-0.943-1.229-2.124-2.493-3.483-3.136
		c-2.225-1.054-4.668-1.663-7.046-2.358c-1.163-0.34-2.393-0.45-3.775-0.698c0.082,0.571,0.019,0.953,0.175,1.095
		c9.312,8.487,12.449,19.516,12.858,31.587c0.219,6.516-0.047,13.049,0.185,19.563c0.216,6.101,0.855,12.185,1.204,18.283
		c0.546,9.549-3.375,16.333-12.348,20.171c-0.973,0.417-1.727,2.439-1.778,3.749c-0.417,10.784-1.339,21.454-4.281,31.923
		c-7.569,26.953-25.092,44.195-51.374,52.78c-20.802,6.793-42.026,6.706-63.204,2.244c-8.66-1.825-17.104-4.831-25.474-7.787
		c-3.406-1.204-6.413-3.617-9.485-5.654c-1.601-1.061-1.828-8.021-0.287-9.123c0.619-0.443,1.977-0.319,2.78,0.038
		c13.126,5.82,26.688,10.207,40.925,12.234c21.043,2.995,41.762,2.464,61.43-6.823c18.816-8.885,30.329-23.769,35.591-43.764
		c2.286-8.68,3.216-17.481,3.298-26.42c0.017-1.917-0.529-2.989-2.386-3.751c-7.643-3.135-12.054-9.046-13.272-17.064
		c-0.859-5.655-1.743-11.286-0.683-17.199c0.727-4.038-0.585-8.416-0.781-12.651c-0.319-6.913-1.012-13.867-0.564-20.74
		c0.581-8.919,4.651-16.428,11.699-22.15c0.239-0.195,0.485-0.396,0.678-0.635C400.455,142.381,400.466,142.158,400.833,140.979z
		 M423.737,184.773c-0.087-0.002-0.171-0.005-0.258-0.006c0-3.515,0.053-7.03-0.01-10.544c-0.19-10.873-4.041-20.127-12.166-27.518
		c-3.369-3.064-3.629-3.249-7.326-0.432c-7.464,5.685-11.586,13.389-11.38,22.687c0.216,9.794,1.44,19.566,2.266,29.345
		c0.047,0.554,0.468,1.076,0.713,1.614c0.643,1.418,1.6,2.781,1.863,4.268c0.654,3.652,0.692,7.429,1.521,11.031
		c1.248,5.427,6.511,9.127,11.708,8.724c5.875-0.454,9.688-4.293,10.244-10.458c0.418-4.669,0.623-9.256,1.937-13.917
		C424.157,194.921,423.52,189.727,423.737,184.773z"/>
	<linearGradient id="SVGID_2_" gradientUnits="userSpaceOnUse" x1="316.0234" y1="262.2129" x2="391.8228" y2="262.2129">
		<stop  offset="0" style="stop-color:#1B1464"/>
		<stop  offset="1" style="stop-color:#000000"/>
	</linearGradient>
	<path fill-rule="evenodd" clip-rule="evenodd" fill="url(#SVGID_2_)" d="M391.8,236.669c-0.301,7.389-2.979,14.138-6.006,20.703
		c-10.158,22.033-26.917,36.802-49.873,44.53c-2.727,0.918-5.591,1.522-8.44,1.968c-4.584,0.718-8.413-1.634-10.089-5.906
		c-3.818-9.737,0.586-20.213,10.273-24.081c7.143-2.851,14.118-5.904,19.844-11.251c8.511-7.949,13.872-17.646,16.394-28.974
		c0.271-1.205,0.628-2.407,1.094-3.547c2.86-6.985,8.444-10.523,14.928-9.511c5.839,0.911,11.315,7.315,11.869,13.9
		C391.855,235.218,391.8,235.945,391.8,236.669z"/>
	<linearGradient id="SVGID_3_" gradientUnits="userSpaceOnUse" x1="242.9453" y1="284.7808" x2="307.1572" y2="284.7808">
		<stop  offset="0" style="stop-color:#1B1464"/>
		<stop  offset="1" style="stop-color:#1B1464"/>
	</linearGradient>
	<path fill-rule="evenodd" clip-rule="evenodd" fill="url(#SVGID_3_)" d="M242.945,276.303c1.489-0.43,2.272-0.615,3.027-0.879
		c6.519-2.279,13.228-4.142,19.497-6.979c6.688-3.026,13.104-3.725,19.692-0.428c5.163,2.583,10.567,4.919,15.191,8.29
		c6.989,5.093,8.599,13.651,4.812,20.416c-2.975,5.314-7.558,7.928-13.425,6.696c-6.239-1.309-12.474-3.074-18.374-5.468
		c-10.529-4.274-20.073-10.264-27.942-18.637C244.668,278.513,244.019,277.615,242.945,276.303z"/>
	<path fill-rule="evenodd" clip-rule="evenodd" d="M311.233,226.778c-5.79-0.021-10.579-4.698-10.6-11.089
		c-0.01-3.024-1.199-4.324-3.621-5.595c-6.225-3.265-12.326-6.769-18.447-10.229c-3.072-1.737-4.499-4.426-4.369-7.978
		c0.198-5.39,5.66-8.47,10.23-5.593c1.72,1.083,3.179,2.625,4.628,4.088c4.88,4.919,9.641,9.964,14.618,14.783
		c0.781,0.756,2.595,1.072,3.694,0.759c3.255-0.926,6.269-0.62,8.81,1.455c1.858,1.519,3.248,1.231,4.93-0.009
		c9.07-6.688,18.121-13.403,27.28-19.966c1.673-1.2,3.768-2.277,5.759-2.467c3.09-0.294,5.676,2.265,6.288,5.34
		c0.76,3.823-0.897,7.509-4.399,9.016c-4.176,1.798-8.482,3.287-12.705,4.982c-6.43,2.582-12.813,5.283-19.264,7.81
		c-2.086,0.816-2.984,1.863-2.965,4.297C321.149,222.648,317.015,226.799,311.233,226.778z M304.306,215.71
		c-0.146,3.816,2.839,7.031,6.625,7.135c3.378,0.094,6.293-2.591,6.358-5.856c0.078-3.956-2.767-7.325-6.33-7.5
		C307.237,209.307,304.45,211.911,304.306,215.71z"/>
	<path fill-rule="evenodd" clip-rule="evenodd" fill="#FFFFFF" d="M304.306,215.71c0.144-3.8,2.931-6.404,6.654-6.221
		c3.563,0.175,6.407,3.544,6.33,7.5c-0.065,3.265-2.979,5.95-6.358,5.856C307.145,222.741,304.161,219.527,304.306,215.71z"/>
</g>
<g>
	<line stroke="#000000" stroke-width="2" stroke-miterlimit="10" x1="242.323" y1="401.138" x2="244.417" y2="375.315"/>
	<line stroke="#000000" stroke-width="2" stroke-miterlimit="10" x1="284.774" y1="395.689" x2="285.634" y2="376.765"/>
	<line stroke="#000000" stroke-width="2" stroke-miterlimit="10" x1="231.8" y1="421.604" x2="233.149" y2="394.993"/>
	<line stroke="#000000" stroke-width="2" stroke-miterlimit="10" x1="461.944" y1="395.24" x2="463.345" y2="371.172"/>
	<g>
		<path fill-rule="evenodd" clip-rule="evenodd" d="M392.25,447.506c1.278,1.289,2.3,2.782,3.15,4.38
			c1.004,0.344,2.019,0.659,3.037,0.928c0.572-0.037,2.13,0.028,3.257,0.047c0.325-0.134,0.659-0.271,0.994-0.408
			c0.701-1.703,1.525-3.354,2.452-4.94c0.038-3.862,0.08-7.726,0.112-11.59c0.038-4.688,0.007-9.378,0.007-14.066
			c1.555,0.322,2.106,0.75,2.649,1.194c7.364,6.026,15.707,7.715,24.771,5.135c19.57-5.57,29.305-28.307,20.335-47.192
			c-6.986-14.711-21.609-21.643-36.403-16.956c-3.471,1.098-6.626,3.204-10.074,4.92c-0.181-0.292-0.486-0.691-0.701-1.137
			c-1.388-2.854-3.704-4.291-6.793-3.712c-3.275,0.612-4.311,3.287-4.574,6.247c-0.174,1.953-0.099,3.928-0.157,5.894
			c-0.549,18.505-1.093,37.009-1.657,55.514c-0.159,5.186-0.331,10.369-0.503,15.554
			C392.182,447.382,392.217,447.442,392.25,447.506z M416.155,378.252c13.079-7.434,27.886,1.822,27.952,18.855
			c-0.016,3.638-1.414,8.223-4.483,12.208c-7.062,9.173-19.533,9.811-27.629,1.471C402.9,401.411,405.056,384.565,416.155,378.252z"
			/>
		<path fill-rule="evenodd" clip-rule="evenodd" d="M173.088,367.793c4.804-1.382,9.34-3.509,14.014-3.87
			c12.117-0.935,22.261,6.862,25.265,19c0.957,3.865,1.244,7.981,1.249,11.982c0.011,9.208-0.353,18.417-0.54,27.624
			c-0.07,3.492-1.206,6.284-4.733,7.605c-3.422,1.281-7.394-0.555-7.963-4.138c-0.514-3.229-0.409-6.581-0.359-9.877
			c0.12-7.86,0.368-15.72,0.564-23.579c0.003-0.104,0-0.208-0.003-0.311c-0.234-8.554-4.505-14.007-11.625-14.841
			c-6.869-0.805-13.774,4.335-15.673,11.878c-0.626,2.489-0.985,5.091-1.083,7.655c-0.34,8.892-0.5,17.787-0.751,26.684
			c-0.085,2.993-1.506,5.485-4.338,6.121c-1.975,0.445-4.855,0.179-6.255-1.024c-1.544-1.324-2.561-4.073-2.588-6.218
			c-0.104-8.27,0.243-16.549,0.486-24.82c0.555-18.925,1.14-37.847,1.736-56.771c0.097-3.037,0.833-5.804,4.042-7.057
			c4.637-1.809,8.854,1.303,8.848,6.788c-0.009,7.964-0.307,15.929-0.448,23.895C172.907,365.818,173.053,367.12,173.088,367.793z"
			/>
		<path fill-rule="evenodd" clip-rule="evenodd" d="M524.056,422.152c-4.592,2.24-8.772,5.196-13.403,6.354
			c-10.137,2.538-19.901-2.283-26.436-12.014c-9.022-13.435-7.235-33.727,3.872-45.108c10.064-10.312,26.435-10.923,34.887-2.022
			c0.192,0.203,0.541,0.259,0.812,0.38c2.649-4.513,4.46-5.701,7.459-4.918c3.222,0.84,4.623,3.032,4.613,8.141
			c-0.029,16.129-0.167,32.256-0.322,48.384c-0.014,1.313-0.054,3.008-0.823,3.843c-1.286,1.398-3.171,3.083-4.803,3.085
			c-1.641,0.001-3.5-1.693-4.84-3.061C524.256,424.386,524.239,422.771,524.056,422.152z M490.034,395.66
			c-0.063,5.8,1.494,10.553,4.54,14.604c5.754,7.656,16.392,8.318,23.058,1.438c6.557-6.768,8.172-18.288,3.727-26.563
			c-6.08-11.315-19.812-12.25-27.213-1.856C491.352,387.203,489.927,391.544,490.034,395.66z"/>
		<path fill-rule="evenodd" clip-rule="evenodd" d="M387.528,395.521c-0.392,17.53-12.11,33.156-28.006,36.729
			c-18.997,4.265-38.035-7.805-42.818-27.139c-3.054-12.345-0.472-23.578,6.74-33.859c0.934-1.334,2.136-2.557,3.434-3.542
			c2.744-2.083,5.617-1.581,8.269,1.211c2.72,2.867,2.89,4.989,0.749,7.94c-1.819,2.507-3.927,4.89-5.264,7.64
			c-4.615,9.498-3.255,18.595,3.052,26.802c5.818,7.575,13.754,10.429,23.119,8.462c10.133-2.129,17.27-11.758,17.948-23.709
			c0.565-9.972-5.941-19.536-15.465-22.729c-0.979-0.329-1.981-0.607-2.938-0.993c-3.614-1.455-4.944-4.433-3.756-8.332
			c1.015-3.33,3.985-5.125,7.546-4.125c11.755,3.3,19.977,10.693,24.169,22.149C385.885,386.34,386.482,391.012,387.528,395.521z"/>
		<path fill-rule="evenodd" clip-rule="evenodd" d="M128.28,431.964c-6.781,0.035-13.113-1.757-19.11-4.754
			c-2.926-1.462-5.399-3.503-6.174-6.95c-0.746-3.313,0.324-6.427,2.747-7.985c2.899-1.864,5.804-1.645,8.334,0.521
			c3.949,3.381,8.477,5.065,13.59,5.322c1.538,0.076,3.103,0.097,4.624-0.102c4.003-0.521,5.782-2.27,6.116-5.777
			c0.344-3.608-1.186-6.023-4.933-7.242c-3.637-1.182-7.377-2.04-11.028-3.182c-6.251-1.953-11.899-4.688-15.026-11.033
			c-5.346-10.846,0.767-24.006,12.546-26.524c8.913-1.906,17.514-0.607,25.706,3.238c2.765,1.297,5.25,3.128,5.145,6.722
			c-0.166,5.637-4.554,8.17-9.955,6.302c-4.533-1.567-9.276-2.567-13.978-3.575c-1.328-0.285-3.152-0.156-4.192,0.577
			c-1.444,1.015-2.802,2.617-3.396,4.258c-0.736,2.035,0.404,3.998,2.424,4.813c3.143,1.27,6.414,2.231,9.643,3.285
			c2.652,0.863,5.431,1.426,7.969,2.542c9.657,4.255,14.108,12.101,12.594,21.812c-1.521,9.758-8.684,16.376-18.999,17.503
			C131.388,431.905,129.83,431.894,128.28,431.964z"/>
		<path fill-rule="evenodd" clip-rule="evenodd" d="M242.581,401.138c0-7.242-0.033-14.484,0.025-21.725
			c0.014-1.637-0.277-2.643-2.127-3.134c-2.479-0.658-4.107-2.332-4.172-5.129c-0.073-3.162,0.881-5.94,4.021-7.008
			c2.371-0.806,2.756-2.174,2.889-4.354c0.211-3.489,0.315-7.125,1.395-10.392c2.321-7.028,7.454-11.581,14.778-12.642
			c5.373-0.779,10.919-0.625,16.376-0.471c3.335,0.093,4.997,2.183,5.267,5.4c0.278,3.306-1.461,6-4.591,6.825
			c-1.281,0.338-2.65,0.404-3.985,0.458c-2.171,0.085-4.346,0.067-6.52,0.079c-8.751,0.044-10.319,5.078-9.825,13.014
			c0.034,0.545,1.371,1.393,2.141,1.439c2.575,0.154,5.173-0.105,7.753,0c4.04,0.161,6.267,2.443,6.275,6.19
			c0.007,3.912-2.257,6.486-6.178,6.767c-2.472,0.176-4.968,0.18-7.446,0.072c-2.063-0.091-2.967,0.551-3.012,2.769
			c-0.25,12.721-0.614,25.44-0.947,38.16c-0.052,1.966-0.034,3.941-0.24,5.892c-0.458,4.354-3.186,6.835-7.092,6.605
			c-3.539-0.208-5.813-2.856-5.852-7.092c-0.066-7.24-0.019-14.482-0.019-21.723C241.857,401.138,242.219,401.138,242.581,401.138z"
			/>
		<path fill-rule="evenodd" clip-rule="evenodd" d="M284.512,394.033c0-4.757-0.17-9.522,0.067-14.268
			c0.132-2.663-0.81-3.364-3.302-3.429c-4.677-0.122-6.844-1.996-7.128-5.658c-0.31-3.996,2.333-7.13,6.747-7.148
			c3.327-0.013,3.885-1.439,3.892-4.292c0.015-5.581,0.213-11.169,0.608-16.733c0.278-3.916,2.786-6.257,6.027-6.21
			c3.311,0.049,5.723,2.346,5.857,6.349c0.194,5.78,0.095,11.58-0.142,17.361c-0.105,2.571,0.33,3.818,3.269,3.679
			c3.606-0.172,7.238,0.039,10.854,0.219c3.986,0.2,6.741,2.93,6.627,6.381c-0.114,3.495-2.939,6.149-6.821,6.246
			c-3.619,0.092-7.24,0.105-10.858,0.014c-1.907-0.047-2.757,0.454-2.803,2.581c-0.195,9.097-0.594,18.189-0.86,27.285
			c-0.208,7.071,1.846,9.123,9.373,9.531c4.594,0.252,7.253,2.926,6.869,6.913c-0.326,3.373-2.331,5.407-5.759,5.843
			c-13.168,1.672-22.524-6.42-23.053-20.091c-0.188-4.853-0.03-9.716-0.03-14.573C284.135,394.033,284.323,394.033,284.512,394.033z
			"/>
		<g>
			<path fill-rule="evenodd" clip-rule="evenodd" d="M232.859,397.321c0,8.372,0.151,16.748-0.106,25.111
				c-0.063,2.071-1.021,4.453-2.334,6.066c-1.693,2.079-4.461,2.098-6.91,1.142c-2.625-1.022-3.601-3.375-3.648-5.991
				c-0.072-3.923,0.072-7.849,0.158-11.772c0.289-13.021,0.578-26.041,0.898-39.06c0.141-5.729,3.292-8.955,7.766-8.049
				c3.427,0.694,5.159,3.363,5.145,7.746c-0.028,8.269-0.008,16.539-0.008,24.808C233.499,397.321,233.18,397.321,232.859,397.321z"
				/>
		</g>
		<path fill-rule="evenodd" clip-rule="evenodd" d="M461.958,395.238c0-8.469-0.192-16.945,0.139-25.402
			c0.081-2.071,1.385-4.698,2.994-5.973c3.111-2.463,7.644-0.145,8.284,4.147c0.498,3.344,0.421,6.794,0.374,10.194
			c-0.181,13.017-0.442,26.034-0.696,39.047c-0.034,1.754-0.108,3.517-0.326,5.256c-0.373,3.005-3.002,5.396-5.826,5.443
			c-2.63,0.047-5.319-1.886-5.539-4.862c-0.382-5.129-0.211-10.301-0.241-15.457c-0.024-4.13-0.005-8.261-0.005-12.392
			C461.396,395.238,461.677,395.238,461.958,395.238z"/>
		<path fill-rule="evenodd" clip-rule="evenodd" d="M235.215,345.271c-0.068,4.804-3.387,8.255-7.878,8.193
			c-4.483-0.064-7.671-3.411-7.66-8.046c0.009-4.571,3.661-8.431,7.874-8.319C231.843,337.213,235.277,340.875,235.215,345.271z"/>
		<path fill-rule="evenodd" clip-rule="evenodd" d="M460.833,344.864c0.034-4.476,3.151-7.785,7.22-7.665
			c3.824,0.112,7.128,3.638,7.139,7.616c0.011,4.098-3.244,7.7-6.967,7.713C464.239,352.542,460.801,348.976,460.833,344.864z"/>
		<path fill-rule="evenodd" clip-rule="evenodd" fill="#666666" d="M335.843,364.71c0.036-4.477,3.151-7.785,7.22-7.666
			c3.823,0.112,7.129,3.638,7.14,7.618c0.009,4.099-3.246,7.699-6.969,7.71C339.25,372.388,335.811,368.822,335.843,364.71z"/>
	</g>
</g>
</svg>
