<?xml version="1.0" encoding="utf-8"?>
<svg version="1.1" xmlns="http://www.w3.org/2000/svg" xmlns:xlink="http://www.w3.org/1999/xlink" x="0px" y="0px"
	 width="631.824px" height="623.864px" viewBox="0 0 631.824 623.864" enable-background="new 0 0 631.824 623.864"
	 xml:space="preserve">
<circle fill-rule="evenodd" clip-rule="evenodd" fill="#FFFFFF" cx="328.184" cy="312.914" r="303.333"/>
<g>
	<linearGradient id="SVGID_1_" gradientUnits="userSpaceOnUse" x1="215.748" y1="192.189" x2="375.7163" y2="192.189">
		<stop  offset="0" style="stop-color:#1B1464"/>
		<stop  offset="1" style="stop-color:#29ABE2"/>
	</linearGradient>
	<path fill-rule="evenodd" clip-rule="evenodd" fill="url(#SVGID_1_)" d="M247.58,213.772c-0.245,5.692,1.884,13.368,4.353,20.967
		c0.337,1.039,1.122,1.965,1.814,2.854c4.604,5.896,5.06,12.474,1.215,18.11c-3.542,5.191-10.42,7.349-17.19,5.369
		c-6.218-1.818-10.703-5.78-13.611-11.467c-8.062-15.767-9.615-32.596-7.637-49.881c4.112-35.934,30.118-65.999,65.135-74.472
		c30.777-7.447,57.675,0.935,80.87,21.952c3.805,3.446,7.403,7.281,10.365,11.457c4.565,6.438,3.41,13.807-2.141,18.019
		c-4.655,3.532-10.026,3.654-14.577-0.016c-2.318-1.868-4.329-4.143-6.343-6.359c-24.415-26.901-70.578-28.364-93.303,7.55
		C250.105,188.005,247.854,199.452,247.58,213.772z"/>
	<path fill-rule="evenodd" clip-rule="evenodd" d="M400.833,140.979c-4.375,0.65-8.233,1.183-12.071,1.833
		c-0.626,0.107-1.41,0.602-1.702,1.144c-2.057,3.816-5.881,4.337-9.49,4.992c-3.219,0.583-5.233-1.177-5.888-4.521
		c-0.646-3.315,0.605-5.739,3.884-6.284c3.33-0.554,6.752-2.369,10.189-0.064c0.427,0.287,1.374-0.156,2.068-0.315
		c6.325-1.465,12.638-2.333,18.927,0.213c0.54,0.22,1.242,0.277,1.814,0.154c7.361-1.595,14.132,0.495,20.852,3.16
		c0.981,0.39,2.286,0.354,3.34,0.098c2.13-0.518,8.101,1.534,9.867,3.635c1.715,2.036,1.595,4.412,0.31,6.364
		c-0.825,1.253-2.705,2.663-4.022,2.581c-3.717-0.23-6.816-2.101-9.169-5.158c-0.943-1.229-2.124-2.493-3.483-3.136
		c-2.225-1.054-4.668-1.663-7.046-2.358c-1.163-0.34-2.393-0.45-3.775-0.698c0.082,0.571,0.019,0.953,0.175,1.095
		c9.312,8.487,12.449,19.516,12.858,31.587c0.219,6.516-0.047,13.049,0.185,19.563c0.216,6.101,0.855,12.185,1.204,18.283
		c0.546,9.549-3.375,16.333-12.348,20.171c-0.973,0.417-1.727,2.439-1.778,3.749c-0.417,10.784-1.339,21.454-4.281,31.923
		c-7.569,26.953-25.092,44.195-51.374,52.78c-20.802,6.793-42.026,6.706-63.204,2.244c-8.66-1.825-17.104-4.831-25.474-7.787
		c-3.406-1.204-6.413-3.617-9.485-5.654c-1.601-1.061-1.828-8.021-0.287-9.123c0.619-0.443,1.977-0.319,2.78,0.038
		c13.126,5.82,26.688,10.207,40.925,12.234c21.043,2.995,41.762,2.464,61.43-6.823c18.816-8.885,30.329-23.769,35.591-43.764
		c2.286-8.68,3.216-17.481,3.298-26.42c0.017-1.917-0.529-2.989-2.386-3.751c-7.643-3.135-12.054-9.046-13.272-17.064
		c-0.859-5.655-1.743-11.286-0.683-17.199c0.727-4.038-0.585-8.416-0.781-12.651c-0.319-6.913-1.012-13.867-0.564-20.74
		c0.581-8.919,4.651-16.428,11.699-22.15c0.239-0.195,0.485-0.396,0.678-0.635C400.455,142.381,400.466,142.158,400.833,140.979z
		 M423.737,184.773c-0.087-0.002-0.171-0.005-0.258-0.006c0-3.515,0.053-7.03-0.01-10.544c-0.19-10.873-4.041-20.127-12.166-27.518
		c-3.369-3.064-3.629-3.249-7.326-0.432c-7.464,5.685-11.586,13.389-11.38,22.687c0.216,9.794,1.44,19.566,2.266,29.345
		c0.047,0.554,0.468,1.076,0.713,1.614c0.643,1.418,1.6,2.781,1.863,4.268c0.654,3.652,0.692,7.429,1.521,11.031
		c1.248,5.427,6.511,9.127,11.708,8.724c5.875-0.454,9.688-4.293,10.244-10.458c0.418-4.669,0.623-9.256,1.937-13.917
		C424.157,194.921,423.52,189.727,423.737,184.773z"/>
	<linearGradient id="SVGID_2_" gradientUnits="userSpaceOnUse" x1="316.0234" y1="262.2129" x2="391.8228" y2="262.2129">
		<stop  offset="0" style="stop-color:#1B1464"/>
		<stop  offset="1" style="stop-color:#000000"/>
	</linearGradient>
	<path fill-rule="evenodd" clip-rule="evenodd" fill="url(#SVGID_2_)" d="M391.8,236.669c-0.301,7.389-2.979,14.138-6.006,20.703
		c-10.158,22.033-26.917,36.802-49.873,44.53c-2.727,0.918-5.591,1.522-8.44,1.968c-4.584,0.718-8.413-1.634-10.089-5.906
		c-3.818-9.737,0.586-20.213,10.273-24.081c7.143-2.851,14.118-5.904,19.844-11.251c8.511-7.949,13.872-17.646,16.394-28.974
		c0.271-1.205,0.628-2.407,1.094-3.547c2.86-6.985,8.444-10.523,14.928-9.511c5.839,0.911,11.315,7.315,11.869,13.9
		C391.855,235.218,391.8,235.945,391.8,236.669z"/>
	<linearGradient id="SVGID_3_" gradientUnits="userSpaceOnUse" x1="242.9453" y1="284.7808" x2="307.1572" y2="284.7808">
		<stop  offset="0" style="stop-color:#1B1464"/>
		<stop  offset="1" style="stop-color:#1B1464"/>
	</linearGradient>
	<path fill-rule="evenodd" clip-rule="evenodd" fill="url(#SVGID_3_)" d="M242.945,276.303c1.489-0.43,2.272-0.615,3.027-0.879
		c6.519-2.279,13.228-4.142,19.497-6.979c6.688-3.026,13.104-3.725,19.692-0.428c5.163,2.583,10.567,4.919,15.191,8.29
		c6.989,5.093,8.599,13.651,4.812,20.416c-2.975,5.314-7.558,7.928-13.425,6.696c-6.239-1.309-12.474-3.074-18.374-5.468
		c-10.529-4.274-20.073-10.264-27.942-18.637C244.668,278.513,244.019,277.615,242.945,276.303z"/>
	<path fill-rule="evenodd" clip-rule="evenodd" d="M311.233,226.778c-5.79-0.021-10.579-4.698-10.6-11.089
		c-0.01-3.024-1.199-4.324-3.621-5.595c-6.225-3.265-12.326-6.769-18.447-10.229c-3.072-1.737-4.499-4.426-4.369-7.978
		c0.198-5.39,5.66-8.47,10.23-5.593c1.72,1.083,3.179,2.625,4.628,4.088c4.88,4.919,9.641,9.964,14.618,14.783
		c0.781,0.756,2.595,1.072,3.694,0.759c3.255-0.926,6.269-0.62,8.81,1.455c1.858,1.519,3.248,1.231,4.93-0.009
		c9.07-6.688,18.121-13.403,27.28-19.966c1.673-1.2,3.768-2.277,5.759-2.467c3.09-0.294,5.676,2.265,6.288,5.34
		c0.76,3.823-0.897,7.509-4.399,9.016c-4.176,1.798-8.482,3.287-12.705,4.982c-6.43,2.582-12.813,5.283-19.264,7.81
		c-2.086,0.816-2.984,1.863-2.965,4.297C321.149,222.648,317.015,226.799,311.233,226.778z M304.306,215.71
		c-0.146,3.816,2.839,7.031,6.625,7.135c3.378,0.094,6.293-2.591,6.358-5.856c0.078-3.956-2.767-7.325-6.33-7.5
		C307.237,209.307,304.45,211.911,304.306,215.71z"/>
</g>
</svg> 