<?xml version="1.0" encoding="utf-8"?>
<!-- Generator: Adobe Illustrator 16.0.0, SVG Export Plug-In . SVG Version: 6.00 Build 0)  -->
<!DOCTYPE svg PUBLIC "-//W3C//DTD SVG 1.1//EN" "http://www.w3.org/Graphics/SVG/1.1/DTD/svg11.dtd">
<svg version="1.1" id="Layer_1" xmlns="http://www.w3.org/2000/svg" xmlns:xlink="http://www.w3.org/1999/xlink" x="0px" y="0px"
	 width="631.824px" height="623.864px" viewBox="0 0 631.824 623.864" enable-background="new 0 0 631.824 623.864"
	 xml:space="preserve">
<circle fill-rule="evenodd" clip-rule="evenodd" fill="#FFFFFF" cx="328.184" cy="312.914" r="303.333"/>
<g>
	<linearGradient id="SVGID_1_" gradientUnits="userSpaceOnUse" x1="66.415" y1="254.8413" x2="410.2007" y2="254.8413">
		<stop  offset="0" style="stop-color:#1B1464"/>
		<stop  offset="1" style="stop-color:#29ABE2"/>
	</linearGradient>
	<path fill-rule="evenodd" clip-rule="evenodd" fill="url(#SVGID_1_)" d="M134.825,301.225c-0.525,12.233,4.049,28.729,9.354,45.06
		c0.725,2.233,2.41,4.224,3.898,6.132c9.893,12.672,10.873,26.809,2.611,38.92c-7.611,11.155-22.395,15.793-36.943,11.538
		c-13.364-3.907-23-12.422-29.252-24.643C67.167,344.347,63.83,308.18,68.08,271.034c8.838-77.225,64.727-141.837,139.981-160.047
		c66.143-16.004,123.949,2.009,173.795,47.176c8.177,7.406,15.911,15.648,22.276,24.622c9.811,13.834,7.329,29.671-4.601,38.723
		c-10.004,7.589-21.548,7.853-31.327-0.034c-4.983-4.014-9.304-8.904-13.631-13.667c-52.472-57.813-151.679-60.956-200.518,16.227
		C140.252,245.851,135.412,270.449,134.825,301.225z"/>
	<path fill-rule="evenodd" clip-rule="evenodd" d="M464.179,144.786c-9.402,1.396-17.694,2.542-25.942,3.939
		c-1.346,0.229-3.029,1.293-3.658,2.458c-4.42,8.202-12.638,9.321-20.395,10.729c-6.918,1.252-11.248-2.53-12.654-9.716
		c-1.389-7.125,1.302-12.333,8.348-13.505c7.156-1.19,14.511-5.091,21.897-0.138c0.917,0.616,2.953-0.335,4.446-0.678
		c13.593-3.148,27.158-5.014,40.674,0.458c1.161,0.472,2.669,0.596,3.9,0.33c15.82-3.428,30.37,1.064,44.812,6.791
		c2.109,0.838,4.913,0.761,7.177,0.209c4.578-1.112,17.409,3.297,21.206,7.813c3.686,4.374,3.428,9.48,0.665,13.676
		c-1.773,2.694-5.813,5.722-8.645,5.547c-7.988-0.495-14.648-4.515-19.705-11.085c-2.027-2.64-4.564-5.357-7.486-6.739
		c-4.78-2.264-10.031-3.574-15.142-5.067c-2.499-0.73-5.142-0.967-8.114-1.5c0.177,1.228,0.04,2.048,0.377,2.353
		c20.011,18.24,26.754,41.941,27.634,67.884c0.47,14.003-0.102,28.043,0.396,42.044c0.463,13.111,1.838,26.186,2.587,39.292
		c1.173,20.521-7.253,35.102-26.536,43.349c-2.09,0.895-3.71,5.243-3.822,8.056c-0.896,23.175-2.876,46.106-9.2,68.605
		c-16.268,57.924-53.924,94.979-110.407,113.429c-44.705,14.6-90.316,14.412-135.83,4.823
		c-18.611-3.922-36.759-10.383-54.746-16.736c-7.32-2.586-13.781-7.773-20.385-12.15c-3.439-2.279-3.928-17.238-0.617-19.605
		c1.33-0.952,4.248-0.687,5.974,0.08c28.21,12.508,57.353,21.937,87.952,26.291c45.225,6.438,89.749,5.297,132.017-14.663
		c40.438-19.093,65.181-51.079,76.488-94.053c4.912-18.653,6.911-37.567,7.088-56.779c0.036-4.119-1.138-6.423-5.128-8.061
		c-16.424-6.738-25.903-19.441-28.523-36.672c-1.847-12.153-3.746-24.254-1.467-36.963c1.562-8.677-1.257-18.085-1.68-27.188
		c-0.686-14.855-2.174-29.802-1.212-44.572c1.248-19.169,9.995-35.306,25.142-47.602c0.515-0.42,1.044-0.85,1.457-1.365
		C463.366,147.799,463.39,147.319,464.179,144.786z M513.401,238.904c-0.187-0.006-0.368-0.011-0.555-0.014
		c0-7.554,0.113-15.108-0.021-22.66c-0.409-23.366-8.685-43.254-26.146-59.137c-7.24-6.585-7.798-6.981-15.744-0.929
		c-16.04,12.216-24.898,28.774-24.457,48.755c0.465,21.048,3.096,42.049,4.87,63.065c0.101,1.19,1.005,2.312,1.532,3.469
		c1.38,3.048,3.438,5.977,4.004,9.171c1.405,7.848,1.487,15.965,3.268,23.707c2.682,11.663,13.992,19.615,25.161,18.749
		c12.627-0.977,20.822-9.228,22.016-22.474c0.898-10.036,1.339-19.893,4.161-29.909
		C514.302,260.712,512.935,249.549,513.401,238.904z"/>
	<linearGradient id="SVGID_2_" gradientUnits="userSpaceOnUse" x1="281.9155" y1="405.3286" x2="444.8149" y2="405.3286">
		<stop  offset="0" style="stop-color:#1B1464"/>
		<stop  offset="1" style="stop-color:#000000"/>
	</linearGradient>
	<path fill-rule="evenodd" clip-rule="evenodd" fill="url(#SVGID_2_)" d="M444.767,350.433
		c-0.647,15.879-6.403,30.384-12.907,44.493c-21.831,47.352-57.848,79.091-107.182,95.698c-5.861,1.974-12.016,3.271-18.139,4.229
		c-9.852,1.541-18.08-3.512-21.682-12.693c-8.205-20.927,1.259-43.44,22.077-51.751c15.35-6.129,30.341-12.688,42.646-24.181
		c18.291-17.084,29.813-37.924,35.231-62.269c0.581-2.589,1.351-5.172,2.352-7.624c6.146-15.012,18.146-22.615,32.079-20.44
		c12.549,1.957,24.319,15.72,25.509,29.872C444.883,347.313,444.767,348.877,444.767,350.433z"/>
	<linearGradient id="SVGID_3_" gradientUnits="userSpaceOnUse" x1="124.8643" y1="453.8286" x2="262.8604" y2="453.8286">
		<stop  offset="0" style="stop-color:#1B1464"/>
		<stop  offset="1" style="stop-color:#1B1464"/>
	</linearGradient>
	<path fill-rule="evenodd" clip-rule="evenodd" fill="url(#SVGID_3_)" d="M124.864,435.61c3.199-0.923,4.882-1.32,6.504-1.89
		c14.01-4.896,28.429-8.901,41.9-14.997c14.374-6.504,28.163-8.006,42.319-0.921c11.096,5.55,22.709,10.572,32.647,17.814
		c15.019,10.945,18.479,29.339,10.341,43.876c-6.394,11.421-16.241,17.038-28.852,14.392c-13.408-2.813-26.807-6.606-39.488-11.752
		c-22.627-9.185-43.138-22.059-60.05-40.053C128.567,440.359,127.17,438.429,124.864,435.61z"/>
	<path fill-rule="evenodd" clip-rule="evenodd" d="M271.62,329.176c-12.442-0.043-22.735-10.096-22.779-23.832
		c-0.021-6.5-2.576-9.292-7.781-12.023c-13.378-7.017-26.489-14.547-39.643-21.984c-6.603-3.733-9.669-9.511-9.389-17.146
		c0.426-11.583,12.165-18.203,21.986-12.019c3.697,2.327,6.833,5.642,9.947,8.786c10.489,10.573,20.719,21.414,31.415,31.77
		c1.678,1.625,5.577,2.304,7.94,1.631c6.996-1.99,13.471-1.333,18.933,3.127c3.993,3.264,6.979,2.645,10.595-0.02
		c19.491-14.373,38.943-28.804,58.628-42.91c3.595-2.578,8.097-4.894,12.376-5.302c6.64-0.632,12.197,4.867,13.514,11.476
		c1.633,8.215-1.929,16.137-9.455,19.375c-8.975,3.865-18.229,7.063-27.305,10.708c-13.817,5.548-27.537,11.353-41.398,16.783
		c-4.482,1.754-6.414,4.003-6.373,9.234C292.931,320.3,284.046,329.221,271.62,329.176z M256.734,305.391
		c-0.313,8.201,6.1,15.109,14.239,15.334c7.26,0.201,13.524-5.569,13.663-12.585c0.167-8.502-5.946-15.742-13.603-16.118
		C263.032,291.628,257.042,297.225,256.734,305.391z"/>
</g>
<g display="none">
	
		<line display="inline" stroke="#000000" stroke-width="2" stroke-miterlimit="10" x1="242.323" y1="401.138" x2="244.417" y2="375.315"/>
	
		<line display="inline" stroke="#000000" stroke-width="2" stroke-miterlimit="10" x1="284.774" y1="395.689" x2="285.634" y2="376.765"/>
	
		<line display="inline" stroke="#000000" stroke-width="2" stroke-miterlimit="10" x1="231.8" y1="421.604" x2="233.149" y2="394.993"/>
	
		<line display="inline" stroke="#000000" stroke-width="2" stroke-miterlimit="10" x1="461.944" y1="395.24" x2="463.345" y2="371.172"/>
	<g display="inline">
		<path fill-rule="evenodd" clip-rule="evenodd" d="M392.25,447.506c1.278,1.289,2.3,2.782,3.15,4.38
			c1.004,0.344,2.019,0.659,3.037,0.928c0.572-0.037,2.13,0.028,3.257,0.047c0.325-0.134,0.659-0.271,0.994-0.408
			c0.701-1.703,1.525-3.354,2.452-4.94c0.038-3.862,0.08-7.726,0.112-11.59c0.038-4.688,0.007-9.378,0.007-14.066
			c1.555,0.322,2.106,0.75,2.649,1.194c7.364,6.026,15.707,7.715,24.771,5.135c19.57-5.57,29.305-28.307,20.335-47.192
			c-6.986-14.711-21.609-21.643-36.403-16.956c-3.471,1.098-6.626,3.204-10.074,4.92c-0.181-0.292-0.486-0.691-0.701-1.137
			c-1.388-2.854-3.704-4.291-6.793-3.712c-3.275,0.612-4.311,3.287-4.574,6.247c-0.174,1.953-0.099,3.928-0.157,5.894
			c-0.549,18.505-1.093,37.009-1.657,55.514c-0.159,5.186-0.331,10.369-0.503,15.554
			C392.182,447.382,392.217,447.442,392.25,447.506z M416.155,378.252c13.079-7.434,27.886,1.822,27.952,18.855
			c-0.016,3.638-1.414,8.223-4.483,12.208c-7.062,9.173-19.533,9.811-27.629,1.471C402.9,401.411,405.056,384.565,416.155,378.252z"
			/>
		<path fill-rule="evenodd" clip-rule="evenodd" d="M173.088,367.793c4.804-1.382,9.34-3.509,14.014-3.87
			c12.117-0.935,22.261,6.862,25.265,19c0.957,3.865,1.244,7.981,1.249,11.982c0.011,9.208-0.353,18.417-0.54,27.624
			c-0.07,3.492-1.206,6.284-4.733,7.605c-3.422,1.281-7.394-0.555-7.963-4.138c-0.514-3.229-0.409-6.581-0.359-9.877
			c0.12-7.86,0.368-15.72,0.564-23.579c0.003-0.104,0-0.208-0.003-0.311c-0.234-8.554-4.505-14.007-11.625-14.841
			c-6.869-0.805-13.774,4.335-15.673,11.878c-0.626,2.489-0.985,5.091-1.083,7.655c-0.34,8.892-0.5,17.787-0.751,26.684
			c-0.085,2.993-1.506,5.485-4.338,6.121c-1.975,0.445-4.855,0.179-6.255-1.024c-1.544-1.324-2.561-4.073-2.588-6.218
			c-0.104-8.27,0.243-16.549,0.486-24.82c0.555-18.925,1.14-37.847,1.736-56.771c0.097-3.037,0.833-5.804,4.042-7.057
			c4.637-1.809,8.854,1.303,8.848,6.788c-0.009,7.964-0.307,15.929-0.448,23.895C172.907,365.818,173.053,367.12,173.088,367.793z"
			/>
		<path fill-rule="evenodd" clip-rule="evenodd" d="M524.056,422.152c-4.592,2.24-8.772,5.196-13.403,6.354
			c-10.137,2.538-19.901-2.283-26.436-12.014c-9.022-13.435-7.235-33.727,3.872-45.108c10.064-10.312,26.435-10.923,34.887-2.022
			c0.192,0.203,0.541,0.259,0.812,0.38c2.649-4.513,4.46-5.701,7.459-4.918c3.222,0.84,4.623,3.032,4.613,8.141
			c-0.029,16.129-0.167,32.256-0.322,48.384c-0.014,1.313-0.054,3.008-0.823,3.843c-1.286,1.398-3.171,3.083-4.803,3.085
			c-1.641,0.001-3.5-1.693-4.84-3.061C524.256,424.386,524.239,422.771,524.056,422.152z M490.034,395.66
			c-0.063,5.8,1.494,10.553,4.54,14.604c5.754,7.656,16.392,8.318,23.058,1.438c6.557-6.768,8.172-18.288,3.727-26.563
			c-6.08-11.315-19.812-12.25-27.213-1.856C491.352,387.203,489.927,391.544,490.034,395.66z"/>
		<path fill-rule="evenodd" clip-rule="evenodd" d="M387.528,395.521c-0.392,17.53-12.11,33.156-28.006,36.729
			c-18.997,4.265-38.035-7.805-42.818-27.139c-3.054-12.345-0.472-23.578,6.74-33.859c0.934-1.334,2.136-2.557,3.434-3.542
			c2.744-2.083,5.617-1.581,8.269,1.211c2.72,2.867,2.89,4.989,0.749,7.94c-1.819,2.507-3.927,4.89-5.264,7.64
			c-4.615,9.498-3.255,18.595,3.052,26.802c5.818,7.575,13.754,10.429,23.119,8.462c10.133-2.129,17.27-11.758,17.948-23.709
			c0.565-9.972-5.941-19.536-15.465-22.729c-0.979-0.329-1.981-0.607-2.938-0.993c-3.614-1.455-4.944-4.433-3.756-8.332
			c1.015-3.33,3.985-5.125,7.546-4.125c11.755,3.3,19.977,10.693,24.169,22.149C385.885,386.34,386.482,391.012,387.528,395.521z"/>
		<path fill-rule="evenodd" clip-rule="evenodd" d="M128.28,431.964c-6.781,0.035-13.113-1.757-19.11-4.754
			c-2.926-1.462-5.399-3.503-6.174-6.95c-0.746-3.313,0.324-6.427,2.747-7.985c2.899-1.864,5.804-1.645,8.334,0.521
			c3.949,3.381,8.477,5.065,13.59,5.322c1.538,0.076,3.103,0.097,4.624-0.102c4.003-0.521,5.782-2.27,6.116-5.777
			c0.344-3.608-1.186-6.023-4.933-7.242c-3.637-1.182-7.377-2.04-11.028-3.182c-6.251-1.953-11.899-4.688-15.026-11.033
			c-5.346-10.846,0.767-24.006,12.546-26.524c8.913-1.906,17.514-0.607,25.706,3.238c2.765,1.297,5.25,3.128,5.145,6.722
			c-0.166,5.637-4.554,8.17-9.955,6.302c-4.533-1.567-9.276-2.567-13.978-3.575c-1.328-0.285-3.152-0.156-4.192,0.577
			c-1.444,1.015-2.802,2.617-3.396,4.258c-0.736,2.035,0.404,3.998,2.424,4.813c3.143,1.27,6.414,2.231,9.643,3.285
			c2.652,0.863,5.431,1.426,7.969,2.542c9.657,4.255,14.108,12.101,12.594,21.812c-1.521,9.758-8.684,16.376-18.999,17.503
			C131.388,431.905,129.83,431.894,128.28,431.964z"/>
		<path fill-rule="evenodd" clip-rule="evenodd" d="M242.581,401.138c0-7.242-0.033-14.484,0.025-21.725
			c0.014-1.637-0.277-2.643-2.127-3.134c-2.479-0.658-4.107-2.332-4.172-5.129c-0.073-3.162,0.881-5.94,4.021-7.008
			c2.371-0.806,2.756-2.174,2.889-4.354c0.211-3.489,0.315-7.125,1.395-10.392c2.321-7.028,7.454-11.581,14.778-12.642
			c5.373-0.779,10.919-0.625,16.376-0.471c3.335,0.093,4.997,2.183,5.267,5.4c0.278,3.306-1.461,6-4.591,6.825
			c-1.281,0.338-2.65,0.404-3.985,0.458c-2.171,0.085-4.346,0.067-6.52,0.079c-8.751,0.044-10.319,5.078-9.825,13.014
			c0.034,0.545,1.371,1.393,2.141,1.439c2.575,0.154,5.173-0.105,7.753,0c4.04,0.161,6.267,2.443,6.275,6.19
			c0.007,3.912-2.257,6.486-6.178,6.767c-2.472,0.176-4.968,0.18-7.446,0.072c-2.063-0.091-2.967,0.551-3.012,2.769
			c-0.25,12.721-0.614,25.44-0.947,38.16c-0.052,1.966-0.034,3.941-0.24,5.892c-0.458,4.354-3.186,6.835-7.092,6.605
			c-3.539-0.208-5.813-2.856-5.852-7.092c-0.066-7.24-0.019-14.482-0.019-21.723C241.857,401.138,242.219,401.138,242.581,401.138z"
			/>
		<path fill-rule="evenodd" clip-rule="evenodd" d="M284.512,394.033c0-4.757-0.17-9.522,0.067-14.268
			c0.132-2.663-0.81-3.364-3.302-3.429c-4.677-0.122-6.844-1.996-7.128-5.658c-0.31-3.996,2.333-7.13,6.747-7.148
			c3.327-0.013,3.885-1.439,3.892-4.292c0.015-5.581,0.213-11.169,0.608-16.733c0.278-3.916,2.786-6.257,6.027-6.21
			c3.311,0.049,5.723,2.346,5.857,6.349c0.194,5.78,0.095,11.58-0.142,17.361c-0.105,2.571,0.33,3.818,3.269,3.679
			c3.606-0.172,7.238,0.039,10.854,0.219c3.986,0.2,6.741,2.93,6.627,6.381c-0.114,3.495-2.939,6.149-6.821,6.246
			c-3.619,0.092-7.24,0.105-10.858,0.014c-1.907-0.047-2.757,0.454-2.803,2.581c-0.195,9.097-0.594,18.189-0.86,27.285
			c-0.208,7.071,1.846,9.123,9.373,9.531c4.594,0.252,7.253,2.926,6.869,6.913c-0.326,3.373-2.331,5.407-5.759,5.843
			c-13.168,1.672-22.524-6.42-23.053-20.091c-0.188-4.853-0.03-9.716-0.03-14.573C284.135,394.033,284.323,394.033,284.512,394.033z
			"/>
		<g>
			<path fill-rule="evenodd" clip-rule="evenodd" d="M232.859,397.321c0,8.372,0.151,16.748-0.106,25.111
				c-0.063,2.071-1.021,4.453-2.334,6.066c-1.693,2.079-4.461,2.098-6.91,1.142c-2.625-1.022-3.601-3.375-3.648-5.991
				c-0.072-3.923,0.072-7.849,0.158-11.772c0.289-13.021,0.578-26.041,0.898-39.06c0.141-5.729,3.292-8.955,7.766-8.049
				c3.427,0.694,5.159,3.363,5.145,7.746c-0.028,8.269-0.008,16.539-0.008,24.808C233.499,397.321,233.18,397.321,232.859,397.321z"
				/>
		</g>
		<path fill-rule="evenodd" clip-rule="evenodd" d="M461.958,395.238c0-8.469-0.192-16.945,0.139-25.402
			c0.081-2.071,1.385-4.698,2.994-5.973c3.111-2.463,7.644-0.145,8.284,4.147c0.498,3.344,0.421,6.794,0.374,10.194
			c-0.181,13.017-0.442,26.034-0.696,39.047c-0.034,1.754-0.108,3.517-0.326,5.256c-0.373,3.005-3.002,5.396-5.826,5.443
			c-2.63,0.047-5.319-1.886-5.539-4.862c-0.382-5.129-0.211-10.301-0.241-15.457c-0.024-4.13-0.005-8.261-0.005-12.392
			C461.396,395.238,461.677,395.238,461.958,395.238z"/>
		<path fill-rule="evenodd" clip-rule="evenodd" d="M235.215,345.271c-0.068,4.804-3.387,8.255-7.878,8.193
			c-4.483-0.064-7.671-3.411-7.66-8.046c0.009-4.571,3.661-8.431,7.874-8.319C231.843,337.213,235.277,340.875,235.215,345.271z"/>
		<path fill-rule="evenodd" clip-rule="evenodd" d="M460.833,344.864c0.034-4.476,3.151-7.785,7.22-7.665
			c3.824,0.112,7.128,3.638,7.139,7.616c0.011,4.098-3.244,7.7-6.967,7.713C464.239,352.542,460.801,348.976,460.833,344.864z"/>
		<path fill-rule="evenodd" clip-rule="evenodd" fill="#666666" d="M335.843,364.71c0.036-4.477,3.151-7.785,7.22-7.666
			c3.823,0.112,7.129,3.638,7.14,7.618c0.009,4.099-3.246,7.699-6.969,7.71C339.25,372.388,335.811,368.822,335.843,364.71z"/>
	</g>
</g>
</svg>
